<svg xmlns="http://www.w3.org/2000/svg" width="573" height="447" viewBox="0 0 573 447" preserveAspectRatio="xMidYMid meet">
  <rect width="573" height="447" fill="#f4f4f4"/>
  <g transform="translate(-0.076590,433.893136) scale(0.100000,-0.100000)">
  <path fill="none" stroke="#000000" stroke-width="120" stroke-linecap="round" stroke-linejoin="round" d="M1612 4329 c-146 -24 -375 -151 -397 -219 -4 -14 -26 -18 -130 -24
-146 -7 -222 -28 -349 -94 -68 -36 -110 -68 -180 -137 -81 -79 -156 -183 -179
-246 -3 -10 -26 -22 -55 -29 -41 -9 -65 -26 -141 -97 -122 -114 -146 -150
-165 -252 -9 -46 -16 -93 -15 -105 0 -11 10 26 20 82 23 124 42 156 161 267
86 80 101 89 162 100 29 6 36 4 36 -9 0 -8 12 -41 27 -73 34 -72 122 -161 197
-198 61 -30 60 -23 31 -138 -7 -27 -8 -50 -3 -53 5 -3 8 -2 6 3 -2 8 18 108
28 146 3 9 11 17 18 17 7 0 33 14 57 32 65 47 129 68 208 68 100 0 146 -23
268 -136 113 -106 163 -132 271 -144 35 -4 65 -10 67 -12 3 -3 -9 -44 -25 -93
-37 -110 -40 -198 -9 -280 12 -31 23 -55 25 -53 2 2 -5 28 -16 56 -29 75 -26
167 6 267 15 44 30 84 34 88 10 11 66 24 162 37 89 12 189 0 251 -32 22 -11
41 -18 43 -15 9 8 -95 47 -154 57 -63 11 -149 4 -256 -20 -30 -6 -54 -7 -71 0
-15 6 -43 10 -64 10 -20 0 -65 11 -100 24 -48 19 -85 46 -165 120 -121 112
-167 136 -266 136 -79 0 -135 -18 -205 -65 -27 -18 -57 -35 -65 -37 -28 -5
-131 54 -184 106 -55 54 -108 151 -109 201 -1 50 77 170 174 265 65 64 108 96
175 132 125 65 202 86 343 94 116 7 119 6 126 -15 3 -12 25 -42 47 -68 59 -68
83 -110 114 -199 15 -43 31 -83 36 -89 17 -18 -53 167 -77 205 -13 20 -41 57
-63 83 -22 26 -43 55 -47 66 -21 66 118 172 310 236 111 37 269 44 375 17 117
-31 176 -55 173 -72 -1 -8 -11 -76 -23 -150 -20 -127 -20 -140 -6 -226 30
-185 103 -285 275 -378 133 -72 200 -137 256 -248 25 -49 45 -85 45 -78 0 7
-19 48 -41 91 -52 100 -133 176 -259 244 -169 92 -236 185 -266 369 -14 86
-14 99 7 231 11 77 23 145 24 152 2 6 23 14 46 18 23 4 74 19 113 33 94 33
237 41 356 18 103 -19 219 -74 307 -147 88 -72 92 -115 19 -200 -32 -38 -88
-163 -100 -224 -4 -16 5 -1 18 35 40 110 63 156 94 191 16 19 37 51 46 73 l16
38 112 -7 c142 -9 237 -33 337 -85 125 -65 229 -164 324 -309 25 -37 57 -67
110 -102 180 -118 294 -303 298 -484 1 -37 -19 -227 -24 -230 -1 -1 -32 -15
-68 -32 -128 -59 -214 -53 -337 26 -175 113 -300 153 -480 155 l-104 1 7 50
c16 133 3 306 -27 340 -5 5 -1 -13 7 -40 17 -53 21 -221 9 -304 -6 -40 -17
-57 -83 -124 -93 -96 -141 -130 -227 -163 -65 -24 -73 -25 -293 -23 -153 2
-242 -1 -276 -10 -53 -13 -188 -71 -181 -78 2 -2 27 7 55 21 104 53 146 59
397 57 225 -2 234 -1 298 23 86 32 134 67 224 159 72 75 74 76 135 82 68 7
202 -7 286 -31 67 -19 166 -68 260 -129 115 -74 205 -80 329 -22 84 39 102 32
131 -55 25 -77 51 -223 51 -290 0 -73 -28 -185 -63 -252 -44 -83 -102 -138
-191 -181 -65 -31 -86 -36 -144 -36 -83 0 -177 23 -262 64 -45 22 -87 54 -135
103 -142 145 -141 145 -149 215 -7 65 -34 174 -41 167 -2 -2 2 -25 10 -51 8
-26 17 -80 21 -120 l6 -72 -98 -27 c-55 -15 -139 -32 -189 -38 -94 -11 -165
-30 -225 -61 -36 -17 -109 -89 -128 -126 -25 -45 -53 -145 -49 -170 l4 -28 2
30 c1 30 33 132 53 168 18 34 81 98 111 114 60 30 138 52 231 63 53 6 141 24
197 40 113 33 124 31 158 -24 36 -58 152 -159 221 -193 72 -34 173 -63 225
-63 l34 0 -6 -52 c-14 -129 -111 -309 -216 -404 -28 -26 -86 -63 -127 -83 -75
-36 -75 -36 -248 -42 -170 -5 -173 -6 -215 -35 -26 -18 -51 -48 -67 -79 -20
-41 -26 -68 -28 -145 -3 -98 5 -138 58 -285 38 -103 15 -190 -50 -195 -101 -8
-147 26 -200 147 -70 162 -171 361 -228 448 -74 114 -173 214 -251 253 -37 18
-97 36 -158 47 -241 41 -309 71 -404 173 -62 67 -119 165 -148 254 -15 46 -9
58 67 138 82 88 148 136 228 166 63 23 79 26 179 22 100 -4 116 -7 171 -35 34
-18 76 -44 95 -59 l34 -28 -24 26 c-13 15 -55 44 -95 65 -68 36 -76 38 -181
41 -100 4 -117 1 -179 -22 -39 -15 -93 -44 -120 -66 -64 -49 -182 -172 -191
-199 -4 -13 -18 -21 -48 -26 -23 -4 -67 -13 -97 -21 -79 -20 -196 -18 -273 6
-71 22 -136 62 -225 138 -31 27 -67 53 -78 56 -27 8 -35 45 -28 133 9 111 31
170 82 219 50 48 143 96 169 88 17 -5 17 -5 1 5 -24 16 -114 -29 -175 -87 -63
-60 -82 -117 -86 -253 l-3 -102 -50 -13 c-27 -8 -101 -14 -165 -14 -105 -1
-124 2 -204 31 -100 35 -183 87 -250 157 -81 83 -93 109 -114 227 -11 61 -20
99 -20 85 -1 -14 6 -65 15 -113 14 -74 22 -96 55 -137 93 -117 183 -183 314
-229 78 -28 101 -32 199 -32 70 0 134 6 174 16 34 9 72 13 85 9 12 -3 48 -29
79 -56 89 -76 154 -116 225 -138 78 -24 194 -26 273 -6 30 8 76 17 101 21 44
7 47 6 53 -20 18 -70 84 -182 150 -252 101 -108 165 -136 409 -178 61 -11 121
-29 158 -47 77 -38 168 -130 241 -243 57 -87 158 -286 228 -448 41 -94 101
-156 152 -158 63 -2 83 3 107 26 35 34 39 103 11 180 -48 133 -60 189 -60 275
1 113 27 182 87 224 42 29 44 30 215 35 173 6 173 6 248 42 95 45 175 119 244
223 55 82 106 205 106 254 0 55 10 72 43 72 48 0 175 67 227 120 59 60 104
146 124 237 20 90 20 146 1 259 -20 116 -52 211 -76 228 -19 13 -20 18 -8 117
6 57 11 120 10 139 -3 68 -23 146 -57 217 -43 90 -154 211 -252 273 -39 25
-77 56 -84 69 -7 14 -39 59 -71 100 -113 150 -272 260 -432 301 -43 11 -127
22 -193 25 -93 4 -118 8 -120 20 -6 26 -132 123 -216 165 -105 53 -215 74
-351 67 -68 -3 -120 -12 -164 -27 -35 -12 -87 -28 -117 -35 -47 -11 -59 -10
-106 8 -145 53 -281 68 -416 46z"/>
  </g>
</svg>
