<svg xmlns="http://www.w3.org/2000/svg" width="694" height="544" viewBox="0 0 694 544" preserveAspectRatio="xMidYMid meet">
  <rect width="694" height="544" fill="#f4f4f4"/>
  <g transform="translate(-51.358165,459.597150) scale(0.100000,-0.100000)"
fill="#000000" stroke="none">
<path d="M2501 4590 c-52 -5 -137 -16 -190 -25 -116 -21 -394 -99 -436 -123
-17 -10 -40 -38 -54 -66 -22 -44 -23 -53 -14 -105 6 -31 28 -99 48 -151 48
-125 50 -136 31 -165 -12 -19 -25 -25 -51 -25 -42 0 -49 10 -100 140 -41 104
-65 144 -97 161 -30 16 -118 14 -161 -4 -98 -42 -284 -200 -334 -285 -19 -32
-26 -58 -26 -96 0 -30 3 -58 7 -65 4 -6 40 -37 79 -68 126 -100 197 -173 197
-203 0 -32 -28 -60 -59 -60 -13 0 -58 32 -114 81 -105 93 -151 125 -221 152
-136 51 -224 8 -340 -168 -89 -133 -124 -234 -146 -421 -18 -147 3 -321 50
-414 22 -43 129 -161 163 -179 22 -12 31 -10 88 18 78 38 163 48 269 32 96
-15 120 -31 120 -76 0 -26 -6 -39 -25 -51 -23 -15 -32 -15 -79 -4 -29 7 -87
11 -128 9 -95 -5 -123 -24 -113 -79 9 -47 47 -112 87 -146 45 -37 135 -78 243
-109 109 -32 281 -44 623 -45 305 0 324 8 335 136 9 109 82 222 197 307 38 27
153 77 180 77 9 0 27 -11 40 -25 39 -41 20 -71 -73 -120 -136 -70 -197 -135
-217 -229 -21 -100 23 -251 93 -324 110 -115 342 -226 567 -272 75 -16 144
-22 245 -23 235 -2 260 15 260 183 0 84 -3 102 -29 158 -35 76 -106 144 -191
183 -64 29 -232 69 -290 69 -86 0 -105 110 -22 125 44 8 216 -21 292 -50 89
-33 160 -71 201 -107 133 -117 189 -275 163 -460 -13 -86 -12 -89 9 -111 21
-20 31 -22 130 -20 59 2 167 10 240 19 72 9 139 13 148 10 10 -4 14 -16 12
-38 -3 -32 -5 -33 -63 -45 -266 -52 -757 -79 -986 -53 -112 12 -265 45 -347
74 -38 14 -44 14 -49 1 -9 -24 24 -150 56 -214 60 -118 165 -209 411 -356 178
-106 332 -205 364 -234 56 -51 105 -122 120 -174 24 -83 76 -119 141 -97 56
18 75 52 75 130 0 36 -7 89 -15 117 -30 102 -167 272 -292 363 -40 29 -73 56
-73 61 0 20 21 16 74 -16 87 -52 162 -84 231 -96 55 -11 70 -10 136 11 41 12
118 44 172 72 131 67 213 146 264 254 38 78 38 81 39 209 l2 130 43 26 c76 44
109 122 77 182 -18 34 -153 209 -181 235 -43 40 -93 40 -206 -3 -110 -42 -144
-42 -163 1 -20 44 5 71 98 109 95 38 183 91 243 149 45 43 141 179 141 201 0
7 9 24 21 39 14 17 30 26 50 26 32 0 69 -30 69 -56 0 -24 -44 -108 -110 -207
-33 -49 -60 -96 -60 -104 0 -27 30 -85 77 -146 26 -34 52 -65 58 -69 5 -4 49
-8 96 -8 76 0 93 3 148 31 164 82 302 377 301 642 -1 118 -59 195 -188 246
-117 46 -162 54 -275 49 -86 -4 -117 -11 -202 -43 -55 -20 -126 -54 -158 -76
-77 -51 -89 -53 -121 -28 -21 16 -26 28 -24 53 3 26 14 38 72 77 38 26 94 59
124 74 127 64 302 89 432 61 41 -9 87 -19 102 -23 24 -5 29 -1 39 23 26 68 33
144 21 226 -15 104 -46 170 -113 239 -42 43 -67 59 -112 73 -87 27 -117 18
-173 -55 -56 -73 -176 -177 -247 -214 -60 -31 -99 -29 -118 6 -21 40 -3 66 94
131 111 75 182 144 222 218 24 46 29 66 28 122 0 55 -6 80 -31 130 -42 85
-153 202 -254 271 -96 65 -134 82 -289 132 -104 34 -121 37 -199 32 -83 -4
-176 -33 -199 -61 -7 -8 -5 -30 4 -67 27 -101 15 -229 -26 -261 -27 -23 -51
-23 -80 1 -22 17 -22 21 -13 97 17 132 -8 213 -93 298 -53 54 -117 93 -193
118 -57 18 -94 21 -285 24 -121 1 -262 -1 -314 -6z m523 -316 c28 -27 19 -60
-24 -94 -22 -18 -52 -53 -67 -78 -57 -97 -25 -203 95 -312 99 -91 280 -162
482 -190 98 -13 115 -6 197 85 79 88 119 157 139 240 10 39 24 78 32 88 20 23
55 22 77 -3 27 -30 14 -107 -38 -215 -32 -66 -68 -117 -131 -190 -138 -157
-178 -259 -175 -442 1 -83 -1 -98 -17 -110 -24 -18 -54 -16 -76 4 -27 24 -25
197 3 315 18 71 20 90 9 103 -7 8 -21 15 -32 15 -37 0 -215 40 -286 64 -113
38 -224 110 -311 202 l-77 82 -139 0 c-155 0 -249 18 -345 67 -69 35 -136 104
-167 170 -29 66 -27 94 9 115 37 20 56 8 92 -63 32 -65 90 -113 176 -148 42
-17 82 -23 170 -27 144 -5 154 1 175 102 16 77 40 118 108 189 35 35 54 47 76
47 16 0 37 -7 45 -16z m-579 -682 c110 -35 217 -101 230 -143 8 -24 -17 -65
-44 -74 -12 -4 -51 11 -113 44 -182 98 -324 106 -503 29 -38 -17 -96 -49 -128
-71 -50 -35 -62 -39 -85 -31 -34 12 -50 54 -34 89 13 29 126 105 200 134 28
11 81 27 119 35 91 21 275 15 358 -12z m648 -263 c35 -16 47 -47 36 -100 -32
-168 21 -376 120 -469 103 -97 210 -130 425 -134 121 -2 130 -4 147 -25 24
-29 24 -42 -1 -74 -17 -22 -31 -26 -98 -33 -91 -8 -236 8 -325 38 -137 45
-212 98 -310 221 l-39 48 -162 -7 c-159 -7 -166 -6 -252 20 -49 15 -107 40
-129 55 -35 24 -40 32 -40 66 0 33 4 42 28 53 25 12 34 10 108 -23 101 -46
195 -61 281 -46 50 8 69 17 91 41 26 29 27 34 27 148 1 136 11 190 41 215 25
20 22 20 52 6z m-2009 -249 c95 -64 198 -112 311 -145 67 -19 110 -25 187 -25
54 0 120 5 146 11 80 19 223 94 285 150 42 37 67 52 87 52 39 0 60 -19 60 -57
0 -24 -10 -41 -42 -73 -53 -50 -154 -118 -216 -145 -26 -11 -59 -32 -74 -46
-35 -32 -36 -61 -8 -227 19 -116 19 -121 1 -145 -10 -14 -29 -26 -43 -28 -43
-5 -59 27 -89 180 -25 128 -31 146 -58 170 -23 21 -43 28 -98 33 -37 3 -113
17 -168 30 -176 42 -435 190 -435 249 0 21 44 66 64 66 8 0 48 -23 90 -50z"/>
</g>
</svg>
