<svg xmlns="http://www.w3.org/2000/svg" width="704" height="522" viewBox="0 0 704 522" preserveAspectRatio="xMidYMid meet">
  <rect width="704" height="522" fill="#f4f4f4"/>
  <g transform="translate(-100.035048,429.730386) scale(0.100000,-0.100000)">
  <path fill="none" stroke="#000000" stroke-width="82" stroke-linecap="round" stroke-linejoin="round" d="M3690 4294 c-208 -40 -337 -102 -402 -195 -14 -21 -19 -22 -35 -11
-23 15 -21 15 -128 46 -165 48 -231 57 -400 57 -167 0 -249 -11 -375 -53 -111
-36 -242 -103 -325 -165 -100 -74 -238 -220 -288 -304 -44 -75 -87 -207 -87
-270 0 -79 -7 -89 -55 -89 -50 0 -172 -38 -253 -79 -31 -16 -86 -54 -121 -85
-156 -135 -221 -280 -221 -487 1 -157 38 -284 114 -386 54 -73 170 -183 231
-218 34 -20 44 -32 40 -44 -15 -36 -45 -174 -45 -206 0 -18 9 -63 21 -101 18
-57 30 -77 82 -129 36 -36 87 -74 122 -91 l60 -29 340 -1 c277 0 357 -4 435
-18 147 -27 389 -101 493 -151 27 -14 29 -14 13 -1 -47 38 -343 133 -506 162
-77 14 -158 18 -435 18 l-340 1 -60 29 c-33 17 -85 55 -117 86 -46 47 -60 68
-77 124 -25 80 -26 118 -7 195 8 31 17 68 20 84 5 20 12 27 29 27 13 0 27 -4
33 -9 16 -14 109 -40 179 -50 75 -11 164 0 201 24 34 22 46 51 46 108 -1 46
-5 55 -42 91 -40 40 -41 41 -113 41 -55 0 -83 -5 -118 -23 -63 -31 -129 -89
-146 -129 -7 -19 -20 -36 -27 -39 -18 -7 -128 68 -200 135 -153 144 -215 288
-216 500 0 204 64 348 215 481 95 83 256 152 382 163 l51 4 13 -65 c13 -71 45
-117 109 -157 99 -62 210 -21 210 79 0 35 -6 48 -37 78 -43 41 -120 68 -194
68 -25 0 -60 3 -76 6 -29 6 -29 6 -25 67 5 85 44 210 89 286 50 84 179 220
278 294 83 62 214 129 325 165 126 42 208 53 375 53 167 0 282 -17 412 -62 31
-10 64 -19 73 -19 29 0 40 -22 24 -44 -19 -26 -18 -141 1 -196 17 -48 67 -115
98 -132 40 -21 91 -27 139 -17 57 13 78 43 78 113 0 40 -6 51 -52 102 -55 60
-130 114 -158 114 -9 0 -25 6 -35 14 -19 14 -19 15 0 50 33 61 139 120 280
157 78 21 113 24 260 24 199 0 290 -15 475 -75 151 -50 213 -77 351 -152 381
-206 684 -510 825 -830 51 -113 76 -206 95 -347 11 -80 11 -111 -3 -220 -17
-135 -33 -192 -80 -286 -47 -95 -53 -104 -102 -160 -86 -101 -256 -192 -393
-212 l-62 -10 -11 65 c-19 113 -81 210 -155 243 -50 23 -126 24 -172 3 -73
-35 -110 -127 -83 -207 15 -48 100 -124 148 -134 20 -4 92 -8 160 -8 l122 0 0
-34 c0 -67 -33 -207 -62 -264 -42 -85 -100 -137 -209 -191 -200 -97 -440 -98
-585 -2 -60 40 -120 117 -235 299 -100 160 -210 267 -342 332 -50 25 -153 64
-227 86 -189 56 -294 108 -364 178 -30 31 -63 74 -72 96 -25 61 -30 188 -10
281 26 119 100 261 192 367 42 48 79 87 84 87 20 0 190 -195 311 -357 265
-355 461 -510 671 -529 146 -13 261 29 370 136 69 69 92 110 103 183 l7 43 87
11 c93 12 205 55 249 96 45 41 70 93 80 163 10 71 2 169 -20 234 -27 84 -137
211 -237 274 -60 39 -208 94 -310 117 -180 40 -449 35 -635 -12 -121 -30 -263
-78 -331 -112 -104 -51 -218 -124 -277 -176 -31 -28 -60 -51 -65 -51 -5 0 -22
14 -39 31 -51 53 -170 126 -251 153 -109 36 -187 35 -295 -4 -46 -17 -107 -46
-136 -66 -71 -47 -190 -166 -235 -234 -85 -130 -110 -308 -63 -446 35 -104 47
-122 133 -205 82 -79 162 -132 253 -167 177 -69 293 -118 355 -151 101 -54
205 -130 215 -156 19 -50 16 -59 -25 -78 -131 -63 -176 -161 -122 -267 33 -65
85 -102 151 -108 67 -5 114 16 158 70 28 36 31 46 31 106 -1 37 -8 83 -16 102
-8 19 -17 52 -21 73 l-7 37 40 0 c106 0 238 -93 307 -216 70 -126 77 -301 16
-422 -56 -113 -147 -189 -352 -293 -88 -44 -119 -67 -190 -139 -76 -75 -89
-94 -117 -165 -32 -83 -78 -253 -70 -261 2 -2 14 37 26 88 13 50 37 128 54
172 28 71 42 91 112 161 66 67 99 90 185 134 143 73 229 132 287 195 99 109
135 235 109 386 -19 105 -65 188 -150 268 -86 80 -141 100 -269 101 -53 0
-101 2 -106 6 -5 3 -12 18 -16 34 -7 34 -27 53 -125 118 -107 72 -185 108
-460 215 -89 34 -170 87 -248 162 -81 78 -93 97 -128 200 -47 138 -22 316 63
446 45 68 154 177 225 224 29 20 90 49 136 66 108 39 186 40 295 4 81 -27 200
-100 251 -153 l29 -30 -82 -93 c-97 -111 -170 -249 -197 -372 -20 -93 -15
-220 10 -281 9 -22 44 -68 78 -101 74 -76 174 -126 368 -183 291 -87 417 -180
572 -427 115 -181 167 -246 232 -290 146 -96 385 -95 585 3 111 54 175 113
219 200 36 70 67 225 59 288 l-6 42 55 7 c128 15 303 110 395 215 53 60 59 69
107 166 47 94 63 151 80 286 14 109 14 140 3 220 -19 142 -44 234 -95 349
-116 261 -334 507 -632 714 -101 70 -266 163 -369 208 -96 42 -303 107 -395
125 -82 15 -368 27 -420 17z m-393 -244 c14 -11 33 -20 42 -20 28 0 103 -54
154 -109 41 -46 47 -59 47 -97 0 -68 -15 -91 -69 -103 -47 -10 -99 -4 -137 17
-30 16 -72 75 -89 123 -17 48 -20 161 -5 190 13 24 25 24 57 -1z m1144 -499
c102 -23 250 -79 310 -117 98 -62 200 -180 227 -264 22 -65 30 -163 20 -234
-9 -68 -35 -123 -75 -158 -33 -30 -148 -77 -214 -88 -110 -17 -104 -21 -117
74 -16 124 -79 235 -193 341 -100 92 -206 130 -296 106 -29 -8 -55 -26 -90
-65 -50 -55 -73 -107 -73 -167 1 -92 88 -185 226 -243 93 -39 270 -76 362 -76
l54 0 -7 -41 c-12 -71 -34 -110 -98 -173 -104 -103 -221 -144 -365 -132 -209
19 -399 168 -662 520 -73 98 -173 221 -222 272 l-88 92 57 52 c60 53 173 125
278 177 111 56 351 125 488 143 113 14 378 4 478 -19z m-2581 -268 c33 -9 68
-27 88 -46 26 -26 32 -38 32 -74 0 -33 -6 -50 -25 -68 -52 -53 -162 -30 -234
48 -19 21 -50 113 -51 152 0 15 121 7 190 -12z m2426 -107 c100 -46 239 -207
279 -324 7 -20 17 -70 20 -110 l8 -72 -60 0 c-96 0 -272 36 -366 76 -174 73
-244 177 -205 306 15 51 90 135 131 148 49 14 131 4 193 -24z m500 -885 c42
-19 77 -58 110 -121 17 -35 56 -191 48 -199 -10 -10 -157 -12 -223 -3 -57 8
-82 17 -109 39 -63 51 -77 78 -77 146 0 72 23 114 77 140 44 22 124 21 174 -2z
m-2960 -122 c31 -31 35 -42 36 -86 0 -57 -13 -87 -43 -103 -37 -20 -126 -29
-194 -19 -67 9 -163 36 -178 49 -15 13 39 95 88 132 68 52 117 68 193 65 57
-3 66 -6 98 -38z m1383 -291 c30 -80 45 -149 44 -199 -1 -46 -7 -65 -28 -92
-78 -103 -242 -83 -296 37 -35 78 -17 164 44 209 63 46 111 65 170 66 51 1 58
-2 66 -21z"/>
  </g>
</svg>
